<svg width="16" height="16" viewBox="0 0 16 16" fill="none" xmlns="http://www.w3.org/2000/svg">
<g clip-path="url(#clip0_1_14)">
<path fill-rule="evenodd" clip-rule="evenodd" d="M13.84 7.69024C12.4696 7.33674 11.219 6.62247 10.2183 5.62174C9.21753 4.62101 8.50326 3.37039 8.14976 2L7.84 0.798721L7.53024 2C7.17669 3.37019 6.46247 4.62062 5.46186 5.62123C4.46126 6.62183 3.21083 7.33605 1.84064 7.6896L0.638077 8L1.83936 8.3104C3.20967 8.66385 4.46023 9.37802 5.46096 10.3786C6.46168 11.3792 7.176 12.6297 7.5296 14L7.83936 15.2019L8.14912 14C8.50272 12.6297 9.21704 11.3792 10.2178 10.3786C11.2185 9.37802 12.469 8.66385 13.8394 8.3104L15.0413 8L13.84 7.69024Z" fill="#8B6FDE"/>
<path fill-rule="evenodd" clip-rule="evenodd" d="M12.1606 5.27808C12.1606 4.5344 12.976 3.67872 13.7606 3.67872C13.0054 3.67872 12.1606 2.81408 12.1606 2.08C12.1606 2.81408 11.3235 3.67872 10.5619 3.67872C11.2947 3.67872 12.1606 4.52992 12.1606 5.27808Z" fill="#DDCFFF"/>
</g>
<defs>
<clipPath id="clip0_1_14">
<rect width="16" height="16" fill="white"/>
</clipPath>
</defs>
</svg>
