<svg width="16" height="16" viewBox="0 0 16 16" fill="none" xmlns="http://www.w3.org/2000/svg">
<path fill-rule="evenodd" clip-rule="evenodd" d="M4.6668 4.3C4.26898 4.3 3.88745 4.45804 3.60614 4.73934C3.32484 5.02064 3.1668 5.40218 3.1668 5.8V12C3.1668 12.3978 3.32484 12.7794 3.60614 13.0607C3.88745 13.342 4.26898 13.5 4.6668 13.5H9.5C9.89783 13.5 10.2794 13.342 10.5607 13.0607C10.842 12.7794 11 12.3978 11 12V5.8C11 5.40218 10.842 5.02064 10.5607 4.73934C10.2794 4.45804 9.89783 4.3 9.5 4.3H4.6668ZM2.1668 5.8C2.1668 5.13696 2.43019 4.50107 2.89903 4.03223C3.36788 3.56339 4.00376 3.3 4.6668 3.3H9.5C10.163 3.3 10.7989 3.56339 11.2678 4.03223C11.7366 4.50107 12 5.13696 12 5.8V12C12 12.663 11.7366 13.2989 11.2678 13.7678C10.7989 14.2366 10.163 14.5 9.5 14.5H4.6668C4.00376 14.5 3.36788 14.2366 2.89903 13.7678C2.43019 13.2989 2.1668 12.663 2.1668 12V5.8Z" fill="#75747A"/>
<path fill-rule="evenodd" clip-rule="evenodd" d="M6.8732 2C6.8732 1.724 7.0972 1.5 7.3732 1.5H11.5668C12.8248 1.5 13.8332 2.5392 13.8332 3.8V9.5132C13.8332 9.64581 13.7805 9.77299 13.6868 9.86675C13.593 9.96052 13.4658 10.0132 13.3332 10.0132C13.2006 10.0132 13.0734 9.96052 12.9796 9.86675C12.8859 9.77299 12.8332 9.64581 12.8332 9.5132V3.8C12.8332 3.0744 12.2552 2.5 11.5668 2.5H7.3732C7.0972 2.5 6.8732 2.276 6.8732 2ZM4.5532 11.6C4.5532 11.324 4.7772 11.1 5.0532 11.1H7.4132C7.54581 11.1 7.67298 11.1527 7.76675 11.2464C7.86052 11.3402 7.9132 11.4674 7.9132 11.6C7.9132 11.7326 7.86052 11.8598 7.76675 11.9536C7.67298 12.0473 7.54581 12.1 7.4132 12.1H5.0532C4.7772 12.1 4.5532 11.876 4.5532 11.6Z" fill="#AAAAAA"/>
</svg>
