<svg width="16" height="16" viewBox="0 0 16 16" fill="none" xmlns="http://www.w3.org/2000/svg">
<path d="M2.002 6.17133C2.01067 5.78 2.044 5.00333 2.106 4.75333C2.422 3.34666 3.49533 2.45333 5.03 2.32666H10.9707C12.492 2.46 13.5787 3.36 13.8947 4.75333C13.956 4.99666 13.9893 5.77933 13.9973 6.17133H2.002Z" fill="#8B6FDE"/>
<path fill-rule="evenodd" clip-rule="evenodd" d="M2 11.2467V6.17133H14V11.2873C14 13.38 12.6827 14.6667 10.5753 14.6667H5.418C3.33067 14.6667 2 13.3533 2 11.2467ZM5.30667 9.60667C5.23442 9.60916 5.16239 9.59733 5.09474 9.57186C5.02708 9.54639 4.96514 9.50779 4.91246 9.45828C4.85979 9.40877 4.81744 9.34932 4.78784 9.28337C4.75824 9.21742 4.74198 9.14626 4.74 9.074C4.74 8.76733 4.97667 8.514 5.28 8.5C5.576 8.5 5.82 8.734 5.82667 9.03333C5.83356 9.17827 5.78268 9.32003 5.6852 9.42751C5.58772 9.53499 5.45159 9.59942 5.30667 9.60667ZM8.01333 9.60667C7.94109 9.60916 7.86906 9.59733 7.80141 9.57186C7.73375 9.54639 7.6718 9.50779 7.61913 9.45828C7.56646 9.40877 7.5241 9.34932 7.4945 9.28337C7.4649 9.21742 7.44865 9.14626 7.44667 9.074C7.44667 8.76733 7.684 8.514 7.98667 8.5C8.28333 8.5 8.52667 8.734 8.53333 9.03333C8.54022 9.17827 8.48935 9.32003 8.39187 9.42751C8.29438 9.53499 8.15825 9.59942 8.01333 9.60667ZM10.7 12.06C10.553 12.0553 10.4137 11.9935 10.3116 11.8877C10.2095 11.7818 10.1527 11.6404 10.1533 11.4933C10.1501 11.3467 10.2051 11.2048 10.3064 11.0987C10.4076 10.9926 10.5467 10.931 10.6933 10.9273H10.7C11.01 10.9273 11.26 11.1807 11.26 11.4933C11.26 11.8067 11.01 12.06 10.7 12.06ZM7.44667 11.4933C7.46 11.8 7.71 12.0407 8.01333 12.0267C8.1582 12.0196 8.29433 11.9553 8.39182 11.8479C8.48932 11.7406 8.54022 11.5989 8.53333 11.454C8.53053 11.3111 8.47164 11.1749 8.36937 11.075C8.26709 10.9751 8.12964 10.9194 7.98667 10.92C7.84017 10.9277 7.7023 10.9916 7.60172 11.0984C7.50114 11.2052 7.44561 11.3466 7.44667 11.4933ZM4.73333 11.4933C4.74667 11.8 4.99667 12.0407 5.3 12.0267C5.44486 12.0196 5.58099 11.9553 5.67849 11.8479C5.77599 11.7406 5.82689 11.5989 5.82 11.454C5.8172 11.3111 5.75831 11.1749 5.65604 11.075C5.55376 10.9751 5.4163 10.9194 5.27333 10.92C5.12684 10.9277 4.98896 10.9916 4.88839 11.0984C4.78781 11.2052 4.73227 11.3466 4.73333 11.4933ZM10.16 9.06733C10.16 8.76067 10.3973 8.514 10.7 8.50733C10.9967 8.50733 11.2333 8.74667 11.2467 9.04067C11.2493 9.11241 11.2377 9.18397 11.2126 9.25124C11.1875 9.31851 11.1495 9.38019 11.1006 9.43275C11.0517 9.48531 10.9929 9.52772 10.9276 9.55756C10.8623 9.5874 10.7917 9.60409 10.72 9.60667C10.6481 9.60898 10.5765 9.59698 10.5093 9.57136C10.4421 9.54575 10.3807 9.50704 10.3286 9.45748C10.2765 9.40792 10.2347 9.34849 10.2058 9.28266C10.1769 9.21683 10.1613 9.1459 10.16 9.074V9.06733Z" fill="#DDCFFF"/>
<path d="M5.53667 4.39333C5.82667 4.39333 6.04334 4.174 6.04334 3.88V1.84733C6.04542 1.77995 6.03381 1.71284 6.00922 1.65006C5.98463 1.58729 5.94757 1.53015 5.90027 1.48211C5.85298 1.43406 5.79643 1.39611 5.73405 1.37054C5.67167 1.34497 5.60475 1.33231 5.53734 1.33333C5.24734 1.33333 5.03067 1.55333 5.03067 1.84733V3.88C5.03067 4.174 5.24667 4.39333 5.53667 4.39333ZM10.4633 4.39333C10.7467 4.39333 10.97 4.174 10.97 3.88V1.84733C10.9715 1.78004 10.9595 1.71312 10.9347 1.65055C10.9098 1.58799 10.8727 1.53104 10.8254 1.48311C10.7782 1.43517 10.7218 1.39721 10.6596 1.37148C10.5974 1.34575 10.5306 1.33278 10.4633 1.33333C10.1733 1.33333 9.95667 1.55333 9.95667 1.84733V3.88C9.95667 4.174 10.1733 4.39333 10.4633 4.39333Z" fill="#DDCFFF"/>
</svg>
