<svg width="16" height="16" viewBox="0 0 16 16" fill="none" xmlns="http://www.w3.org/2000/svg">
<path d="M8 1.33334C6.25333 1.33334 4.83333 2.75334 4.83333 4.5C4.83333 6.21334 6.17333 7.6 7.92 7.66C7.97333 7.65334 8.02666 7.65334 8.06666 7.66H8.11333C8.9329 7.63266 9.70971 7.28765 10.2795 6.69794C10.8493 6.10823 11.1675 5.32003 11.1667 4.5C11.1667 2.75334 9.74666 1.33334 8 1.33334Z" fill="#DDCFFF"/>
<path d="M11.3867 9.44C9.52666 8.2 6.49333 8.2 4.62 9.44C3.77333 10 3.30666 10.7667 3.30666 11.5867C3.30666 12.4067 3.77333 13.1667 4.61333 13.7267C5.54666 14.3533 6.77333 14.6667 8 14.6667C9.22666 14.6667 10.4533 14.3533 11.3867 13.7267C12.2267 13.16 12.6933 12.4 12.6933 11.5733C12.6867 10.76 12.2267 9.99334 11.3867 9.44Z" fill="#8B6FDE"/>
</svg>
